<?xml version="1.0" standalone="no"?>
<!DOCTYPE svg PUBLIC "-//W3C//DTD SVG 20010904//EN"
 "http://www.w3.org/TR/2001/REC-SVG-20010904/DTD/svg10.dtd">
<svg version="1.0" xmlns="http://www.w3.org/2000/svg"
 width="869.000000pt" height="869.000000pt" viewBox="0 0 869.000000 869.000000"
 preserveAspectRatio="xMidYMid meet">
<metadata>
Created by potrace 1.14, written by Peter Selinger 2001-2017
</metadata>
<g transform="translate(0.000000,869.000000) scale(0.100000,-0.100000)"
fill="#000000" stroke="none">
<path d="M1545 8296 c-85 -17 -187 -53 -249 -90 -47 -28 -125 -122 -152 -183
-24 -56 -43 -202 -53 -413 -9 -167 -42 -467 -77 -691 l-6 -36 -142 -10 c-182
-14 -293 -47 -349 -104 -36 -37 -37 -41 -37 -110 0 -79 16 -120 89 -228 91
-134 187 -198 357 -240 126 -32 234 -42 473 -46 123 -3 226 -6 228 -8 6 -7
-35 -184 -58 -255 -12 -35 -38 -99 -60 -143 -21 -44 -39 -85 -39 -92 0 -7 -7
-22 -15 -35 -37 -51 -106 -207 -129 -289 -135 -473 -163 -1021 -68 -1308 44
-134 67 -181 203 -415 15 -26 125 -177 181 -247 18 -23 39 -42 46 -43 7 0 20
-13 29 -28 9 -16 28 -37 43 -48 15 -10 67 -50 117 -87 49 -37 146 -96 214
-130 123 -61 124 -62 131 -102 13 -71 69 -646 64 -654 -3 -4 -38 -30 -78 -56
-240 -159 -236 -156 -278 -220 -54 -82 -84 -162 -104 -276 -9 -52 -31 -159
-49 -239 -47 -213 -44 -284 16 -463 26 -76 47 -151 47 -167 0 -26 -4 -30 -26
-30 -42 0 -80 -35 -112 -104 -47 -101 -47 -101 -7 -125 20 -11 46 -21 59 -21
36 0 118 -31 161 -61 22 -15 56 -51 75 -80 19 -28 47 -64 62 -80 l26 -29 270
0 269 0 47 52 c79 88 110 118 143 139 35 22 159 59 197 59 37 0 151 44 199 76
59 41 172 156 202 208 35 60 83 224 96 330 12 96 1 238 -26 331 -8 28 -19 70
-26 95 -17 67 -74 184 -121 248 -56 77 -196 214 -256 250 -24 15 14 398 48
476 l18 42 113 28 c77 19 159 31 254 36 149 9 185 18 370 94 116 47 416 198
514 258 72 44 151 118 234 221 43 53 97 82 196 103 85 18 245 33 390 36 l114
3 43 -105 c24 -58 43 -113 43 -123 1 -22 65 -161 152 -332 89 -173 95 -185
111 -220 7 -16 60 -77 118 -135 58 -58 104 -109 102 -115 -2 -5 0 -7 4 -3 4 4
24 -6 44 -22 21 -17 41 -30 45 -30 11 0 133 -88 181 -129 22 -20 78 -67 123
-104 l82 -69 -47 -86 c-188 -345 -234 -481 -234 -694 0 -81 21 -242 45 -355 4
-16 1 -23 -10 -23 -20 0 -42 -46 -46 -95 l-4 -40 80 -17 c95 -19 198 -22 263
-7 26 6 88 30 137 53 80 36 98 41 165 41 105 0 150 -22 195 -94 47 -75 49
-144 5 -231 -43 -86 -41 -100 23 -128 49 -21 66 -22 272 -22 l220 0 47 54 c51
58 177 147 272 192 67 31 143 104 202 191 21 32 42 60 46 63 4 3 32 57 62 120
l56 115 0 162 c0 142 -3 167 -21 210 -41 94 -76 200 -94 278 -21 97 -68 222
-101 270 -13 20 -24 39 -24 44 0 23 -96 79 -200 116 -36 13 -114 33 -175 45
-60 12 -144 31 -185 42 -79 21 -180 66 -180 79 0 4 -9 11 -20 14 -51 16 -205
304 -235 440 -4 16 -17 53 -31 82 -13 29 -33 99 -46 155 -20 93 -22 135 -24
448 -3 310 -5 355 -24 445 -25 114 -36 144 -74 199 -14 22 -29 51 -32 65 -3
14 -21 67 -39 116 -42 111 -53 154 -64 245 -22 171 34 313 153 392 51 34 181
58 310 58 211 1 336 59 507 236 141 148 252 348 284 515 42 224 1 463 -115
669 -24 41 -52 93 -63 115 -11 22 -79 100 -151 173 -185 189 -279 238 -502
263 -122 14 -265 2 -379 -32 -73 -21 -170 -80 -189 -114 -17 -31 -178 -216
-183 -211 -3 2 -24 -15 -47 -38 -42 -43 -42 -44 -75 -212 -21 -103 -36 -214
-39 -282 -5 -113 -4 -115 41 -260 79 -256 81 -262 79 -353 -2 -78 1 -91 33
-157 19 -39 53 -96 75 -126 39 -52 80 -139 80 -171 0 -14 -152 -146 -181 -157
-22 -8 -62 20 -55 39 3 8 2 12 -3 9 -5 -3 -48 37 -95 89 -106 115 -179 171
-299 229 -110 53 -137 61 -246 77 -160 22 -395 -4 -585 -66 -43 -14 -79 -24
-80 -23 -1 2 -18 28 -36 58 -19 30 -47 71 -62 90 -14 19 -39 59 -54 89 -14 30
-71 120 -124 200 -54 81 -104 160 -111 176 -8 17 -16 32 -20 35 -3 3 -37 55
-74 115 -38 61 -85 130 -104 155 -19 25 -43 65 -54 90 -11 25 -47 85 -81 135
-66 97 -166 255 -166 261 0 11 -78 121 -100 141 -32 28 -200 103 -232 103 -23
0 -24 2 -36 133 -13 152 -50 308 -88 381 -15 28 -34 65 -42 81 -25 50 -80 113
-150 170 -37 30 -98 91 -137 136 -38 45 -77 89 -86 98 -33 32 -110 161 -103
173 4 7 3 8 -4 4 -7 -4 -12 -1 -12 6 0 28 -118 129 -210 180 -99 55 -200 83
-404 114 -143 22 -694 29 -791 10z"/>
</g>
</svg>
