<?xml version="1.0" standalone="no"?>
<!DOCTYPE svg PUBLIC "-//W3C//DTD SVG 20010904//EN"
 "http://www.w3.org/TR/2001/REC-SVG-20010904/DTD/svg10.dtd">
<svg version="1.0" xmlns="http://www.w3.org/2000/svg"
 width="1085.000000pt" height="1085.000000pt" viewBox="0 0 1085.000000 1085.000000"
 preserveAspectRatio="xMidYMid meet">
<metadata>
Created by potrace 1.14, written by Peter Selinger 2001-2017
</metadata>
<g transform="translate(0.000000,1085.000000) scale(0.100000,-0.100000)"
fill="#000000" stroke="none">
<path d="M5465 10832 c-17 -11 -93 -137 -110 -179 -8 -21 -21 -78 -30 -128
-13 -75 -35 -195 -51 -280 -2 -10 -6 -37 -9 -60 -4 -22 -8 -51 -10 -65 -3 -14
-7 -47 -10 -75 -3 -27 -8 -67 -11 -88 -3 -21 -5 -86 -5 -145 -1 -59 -3 -115
-6 -125 -7 -26 -24 -9 -88 89 -54 83 -134 180 -240 289 -127 132 -228 247
-337 381 -140 174 -264 311 -290 320 -20 6 -196 -32 -212 -46 -8 -8 -9 -329
-1 -460 5 -96 21 -252 30 -300 2 -14 7 -48 10 -75 5 -42 59 -318 69 -350 1 -5
8 -30 15 -55 20 -75 80 -263 95 -300 8 -19 26 -64 39 -100 14 -36 33 -83 43
-105 10 -22 18 -42 19 -45 5 -15 62 -134 121 -252 139 -276 133 -262 114 -297
-5 -10 -40 -36 -77 -58 -37 -22 -108 -64 -158 -93 -224 -133 -631 -416 -758
-529 -18 -15 -75 -66 -127 -111 -228 -200 -305 -269 -368 -328 -37 -34 -112
-93 -167 -129 -55 -36 -113 -80 -128 -97 -28 -31 -82 -126 -72 -126 3 0 2 -8
-4 -17 -11 -22 -20 -107 -26 -244 -2 -58 -6 -118 -9 -135 -3 -16 -8 -49 -11
-74 -4 -25 -22 -92 -41 -150 -51 -153 -61 -207 -68 -372 -2 -47 -9 -74 -24
-95 -23 -32 -32 -40 -237 -201 -77 -60 -183 -148 -235 -194 -233 -205 -450
-352 -1205 -819 -183 -112 -476 -304 -514 -335 -9 -7 -43 -34 -76 -59 -33 -25
-81 -66 -107 -91 l-46 -44 44 -148 c25 -81 46 -154 48 -162 10 -42 123 -341
177 -466 58 -138 219 -464 241 -491 55 -67 460 -221 703 -269 153 -29 202 -53
298 -143 132 -124 278 -193 457 -216 120 -15 817 -24 860 -11 107 33 210 45
355 40 314 -10 438 -8 550 11 17 3 45 7 63 10 17 3 49 8 70 10 39 5 103 15
137 21 49 9 188 25 270 30 50 3 106 10 125 15 43 11 56 -1 66 -61 4 -25 8
-333 9 -685 1 -352 4 -651 9 -665 16 -56 18 -234 3 -297 -14 -62 -14 -63 10
-95 20 -28 24 -43 22 -98 0 -36 -1 -75 0 -87 1 -23 44 -73 62 -73 15 0 39 -64
39 -103 0 -83 27 -110 120 -121 231 -27 861 -28 1070 -1 14 2 52 6 85 10 33 3
71 8 85 10 14 2 45 7 70 10 84 11 225 36 320 56 52 11 106 23 120 25 14 3 61
14 105 25 44 12 87 22 95 24 117 27 505 157 625 210 17 7 71 30 120 50 89 36
344 160 440 213 142 78 197 110 273 159 45 29 85 53 87 53 8 0 100 65 103 73
2 4 8 7 14 7 5 0 16 6 23 13 8 6 30 23 50 37 70 48 261 194 345 264 166 137
376 338 520 496 47 52 92 101 100 109 8 9 44 52 80 96 35 44 67 82 70 85 3 3
42 55 88 115 45 61 86 115 92 122 5 7 10 16 10 22 0 5 4 11 8 13 14 5 127 178
232 354 228 383 424 839 550 1278 27 95 30 112 19 140 -14 35 -126 263 -156
316 -11 19 -52 94 -92 165 -85 152 -94 168 -102 175 -3 3 -24 35 -46 72 -45
76 -78 155 -87 209 -11 63 -296 463 -632 884 -208 262 -348 418 -506 567 -74
70 -155 153 -179 185 -24 32 -47 60 -50 63 -15 13 -81 143 -108 213 -42 111
-70 154 -143 221 -34 32 -115 109 -178 170 -64 61 -144 135 -179 165 -56 48
-89 87 -174 206 -12 17 -46 55 -77 85 -47 47 -90 72 -284 169 -125 62 -273
144 -329 181 -176 117 -209 157 -357 424 -88 158 -157 266 -268 416 -87 117
-230 297 -288 360 -140 153 -271 328 -349 465 -15 28 -43 68 -60 90 -109 136
-206 310 -307 555 -98 235 -131 297 -195 358 -33 31 -58 39 -78 24z"/>
</g>
</svg>
